<?xml version="1.0" encoding="UTF-8" standalone="no"?> <svg width="512" height="512" viewBox="0 0 512 512" fill="none" xmlns="http://www.w3.org/2000/svg">
<path d="M426.667 416H85.3332C79.6755 416 74.2495 413.752 70.2488 409.751C66.2482 405.751 64.0005 400.325 64.0002 394.667V369.672C63.9774 361.264 65.6229 352.936 68.8414 345.168C72.0599 337.401 76.7874 330.349 82.7502 324.422C90.3555 316.853 96.385 307.852 100.49 297.939C104.595 288.025 106.695 277.397 106.667 266.667V170.667C106.667 88.323 173.656 21.333 256 21.333C338.344 21.333 405.333 88.323 405.333 170.667V266.667C405.306 277.397 407.405 288.025 411.51 297.939C415.615 307.852 421.645 316.853 429.25 324.422C435.213 330.349 439.941 337.401 443.159 345.168C446.378 352.936 448.023 361.264 448 369.672V394.667C448 400.325 445.752 405.751 441.752 409.751C437.751 413.752 432.325 416 426.667 416ZM106.667 373.333H405.333V369.672C405.314 364.018 403.069 358.599 399.083 354.589C387.501 343.07 378.319 329.368 372.068 314.276C365.818 299.184 362.622 283.002 362.667 266.667V170.667C362.667 142.377 351.429 115.246 331.425 95.2421C311.421 75.2381 284.29 64 256 64C227.71 64 200.579 75.2381 180.575 95.2421C160.571 115.246 149.333 142.377 149.333 170.667V266.667C149.378 283.002 146.183 299.184 139.932 314.276C133.681 329.368 124.499 343.07 112.917 354.589C108.932 358.599 106.686 364.018 106.667 369.672V373.333Z" fill="black"/>
<path d="M288 490.667H224C218.367 490.628 212.978 488.364 209.009 484.367C205.04 480.371 202.812 474.966 202.812 469.333C202.812 463.701 205.04 458.296 209.009 454.3C212.978 450.303 218.367 448.039 224 448H288C293.633 448.039 299.022 450.303 302.991 454.3C306.96 458.296 309.188 463.701 309.188 469.333C309.188 474.966 306.96 480.371 302.991 484.367C299.022 488.364 293.633 490.628 288 490.667V490.667Z" fill="black"/>
</svg>
