<svg width="24" height="23" viewBox="0 0 24 23" fill="none" xmlns="http://www.w3.org/2000/svg">
<path d="M16.1876 14.9403L21.0632 12.2431C21.2583 12.1501 21.4533 11.8711 21.4533 11.685V11.406C21.4533 11.127 21.3558 10.941 21.0632 10.848L16.1876 8.15077L12.9696 11.499L16.1876 14.9403ZM12.1895 10.662L15.1149 7.49973L4.29097 1.36126C4.09594 1.26825 3.90091 1.26825 3.70589 1.36126L12.1895 10.662ZM12.1895 12.4291L3.70589 21.7298C3.90091 21.8228 4.09594 21.8228 4.29097 21.7298L15.1149 15.6843L12.1895 12.4291ZM2.92578 2.29133V20.7067L11.4094 11.499L2.92578 2.29133Z" fill="#B8B8B8"/>
</svg>
