<svg width="24" height="24" viewBox="0 0 24 24" fill="none" xmlns="http://www.w3.org/2000/svg">
<path d="M18.0347 12.7627C18.0068 9.0422 20.3182 8.94592 20.4221 8.88632C19.122 7.16703 17.0995 6.89653 16.3797 6.87132C14.6588 6.71314 13.0215 7.76993 12.1471 7.76993C11.2753 7.76993 9.92692 6.86902 8.50001 6.89195C6.62451 6.91716 4.89347 7.87538 3.9253 9.39523C1.9763 12.4556 3.42601 16.9876 5.32686 19.468C6.25448 20.6829 7.36204 22.0469 8.81682 21.9988C10.2158 21.9483 10.7456 21.1781 12.4386 21.1781C14.1316 21.1781 14.6055 21.9988 16.0882 21.9713C17.5937 21.946 18.5492 20.7334 19.4692 19.5138C20.5362 18.104 20.9747 16.8088 21 16.74C20.9671 16.7263 18.0626 15.2431 18.0321 12.7627H18.0347ZM12.0001 6.99969C12.0001 4.23966 14.4738 2 17.5278 2C17.5278 4.76232 15.0516 6.99969 12.0001 6.99969Z" fill="#B8B8B8"/>
</svg>
